Exact Audio Copy V0.99 prebeta 1 from 25. May 2007

EAC 抓取日志文件从15. 十一月 2010, 0:29

彭丽媛 / 20世纪中华歌坛名人百集珍藏版

使用驱动器  ：BENQ    DVD-ROM 16X   Adapter: 0  ID: 1

读取模式     : 保护
使用精确流   : 是
废除音频缓冲 : 是
使用 C2 指针 : 否

读取偏移校正                   : 738
读取 Lead-In 和 Lead-Out       : 否
用静音填充抓取中丢失偏移的采样 : 是
去除首尾静音块                 : 否
已用接口                       : Win NT 及 2000 本地 Win32 接口

所用输出格式 : 内部 WAV 函数
样本格式     : 44.100 Hz;16 Bit;立体声


被抓轨 CD 的 TOC

     音轨 |   开始   |   长度   | 起始扇区 | 结尾扇区 
    --------------------------------------------------
       1  |  0:00.00 |  2:54.34 |       0  |   13083  
       2  |  2:54.34 |  2:57.66 |   13084  |   26424  
       3  |  5:52.25 |  3:24.32 |   26425  |   41756  
       4  |  9:16.57 |  5:59.28 |   41757  |   68709  
       5  | 15:16.10 |  2:31.10 |   68710  |   80044  
       6  | 17:47.20 |  2:22.05 |   80045  |   90699  
       7  | 20:09.25 |  2:45.40 |   90700  |  103114  
       8  | 22:54.65 |  4:31.20 |  103115  |  123459  
       9  | 27:26.10 |  2:48.65 |  123460  |  136124  
      10  | 30:15.00 |  4:11.20 |  136125  |  154969  
      11  | 34:26.20 |  7:07.27 |  154970  |  187021  
      12  | 41:33.47 |  4:31.00 |  187022  |  207346  
      13  | 46:04.47 |  5:18.28 |  207347  |  231224  


范围状态及错误

已选择范围

     文件名 E:\文件夹\20世纪中华歌坛名人百集珍藏版-彭丽媛[lwg188原创]\彭丽媛 - 20世纪中华歌坛名人百集珍藏版.wav

     峰值电平 99.6 %
     范围质量 100.0 %
     复制 CRC 678B8330
     复制成功

没有错误发生

状态报告结尾
